<mxfile host="app.diagrams.net" modified="2024-02-29T00:37:10.457Z" agent="Mozilla/5.0 (Windows NT 10.0; Win64; x64) AppleWebKit/537.36 (KHTML, like Gecko) Chrome/122.0.0.0 Safari/537.36" etag="NYG_zZE4EGLpTfY2rSeg" version="23.1.8" type="google" pages="5">
  <diagram name="FabricaDeCarroV1" id="ha0qK6xdIMPN2h3x4_GF">
    <mxGraphModel grid="1" page="1" gridSize="10" guides="1" tooltips="1" connect="1" arrows="1" fold="1" pageScale="1" pageWidth="827" pageHeight="1169" math="0" shadow="0">
      <root>
        <mxCell id="0" />
        <mxCell id="1" parent="0" />
        <mxCell id="my11CwH_pzLGxoa-utFC-1" value="Principal" style="swimlane;fontStyle=2;align=center;verticalAlign=top;childLayout=stackLayout;horizontal=1;startSize=26;horizontalStack=0;resizeParent=1;resizeLast=0;collapsible=1;marginBottom=0;rounded=0;shadow=0;strokeWidth=1;" vertex="1" parent="1">
          <mxGeometry x="240" y="90" width="160" height="70" as="geometry">
            <mxRectangle x="230" y="140" width="160" height="26" as="alternateBounds" />
          </mxGeometry>
        </mxCell>
        <mxCell id="my11CwH_pzLGxoa-utFC-2" value="" style="line;html=1;strokeWidth=1;align=left;verticalAlign=middle;spacingTop=-1;spacingLeft=3;spacingRight=3;rotatable=0;labelPosition=right;points=[];portConstraint=eastwest;" vertex="1" parent="my11CwH_pzLGxoa-utFC-1">
          <mxGeometry y="26" width="160" height="8" as="geometry" />
        </mxCell>
        <mxCell id="my11CwH_pzLGxoa-utFC-3" value="+main(args:String[]): void" style="text;align=left;verticalAlign=top;spacingLeft=4;spacingRight=4;overflow=hidden;rotatable=0;points=[[0,0.5],[1,0.5]];portConstraint=eastwest;" vertex="1" parent="my11CwH_pzLGxoa-utFC-1">
          <mxGeometry y="34" width="160" height="26" as="geometry" />
        </mxCell>
        <mxCell id="my11CwH_pzLGxoa-utFC-4" value="EntradaSaida" style="swimlane;fontStyle=2;align=center;verticalAlign=top;childLayout=stackLayout;horizontal=1;startSize=26;horizontalStack=0;resizeParent=1;resizeLast=0;collapsible=1;marginBottom=0;rounded=0;shadow=0;strokeWidth=1;" vertex="1" parent="1">
          <mxGeometry x="150" y="270" width="360" height="130" as="geometry">
            <mxRectangle x="230" y="140" width="160" height="26" as="alternateBounds" />
          </mxGeometry>
        </mxCell>
        <mxCell id="my11CwH_pzLGxoa-utFC-5" value="" style="line;html=1;strokeWidth=1;align=left;verticalAlign=middle;spacingTop=-1;spacingLeft=3;spacingRight=3;rotatable=0;labelPosition=right;points=[];portConstraint=eastwest;" vertex="1" parent="my11CwH_pzLGxoa-utFC-4">
          <mxGeometry y="26" width="360" height="8" as="geometry" />
        </mxCell>
        <mxCell id="my11CwH_pzLGxoa-utFC-6" value="+ solicitarModelo(modelo : String): String&#xa;&#xa;+ solicitaCor(cor : String) : String&#xa;&#xa;+mostrarConsulta(modelo : String. cor : String) : void" style="text;align=left;verticalAlign=top;spacingLeft=4;spacingRight=4;overflow=hidden;rotatable=0;points=[[0,0.5],[1,0.5]];portConstraint=eastwest;" vertex="1" parent="my11CwH_pzLGxoa-utFC-4">
          <mxGeometry y="34" width="360" height="96" as="geometry" />
        </mxCell>
        <mxCell id="my11CwH_pzLGxoa-utFC-7" style="edgeStyle=orthogonalEdgeStyle;rounded=0;orthogonalLoop=1;jettySize=auto;html=1;entryX=0.472;entryY=0;entryDx=0;entryDy=0;entryPerimeter=0;dashed=1;dashPattern=8 8;" edge="1" parent="1" source="my11CwH_pzLGxoa-utFC-1" target="my11CwH_pzLGxoa-utFC-4">
          <mxGeometry relative="1" as="geometry" />
        </mxCell>
        <mxCell id="my11CwH_pzLGxoa-utFC-8" value="USE" style="edgeLabel;html=1;align=center;verticalAlign=middle;resizable=0;points=[];" connectable="0" vertex="1" parent="my11CwH_pzLGxoa-utFC-7">
          <mxGeometry x="-0.0372" y="1" relative="1" as="geometry">
            <mxPoint as="offset" />
          </mxGeometry>
        </mxCell>
      </root>
    </mxGraphModel>
  </diagram>
  <diagram id="SDigvbDAtV676DzkjNWX" name="FabricaDeCarroV2">
    <mxGraphModel grid="1" page="1" gridSize="10" guides="1" tooltips="1" connect="1" arrows="1" fold="1" pageScale="1" pageWidth="827" pageHeight="1169" math="0" shadow="0">
      <root>
        <mxCell id="0" />
        <mxCell id="1" parent="0" />
        <mxCell id="MNzqw_xFGZkOq_bHs1Yj-1" value="Principal" style="swimlane;fontStyle=2;align=center;verticalAlign=top;childLayout=stackLayout;horizontal=1;startSize=26;horizontalStack=0;resizeParent=1;resizeLast=0;collapsible=1;marginBottom=0;rounded=0;shadow=0;strokeWidth=1;" vertex="1" parent="1">
          <mxGeometry x="240" y="90" width="160" height="70" as="geometry">
            <mxRectangle x="230" y="140" width="160" height="26" as="alternateBounds" />
          </mxGeometry>
        </mxCell>
        <mxCell id="MNzqw_xFGZkOq_bHs1Yj-2" value="" style="line;html=1;strokeWidth=1;align=left;verticalAlign=middle;spacingTop=-1;spacingLeft=3;spacingRight=3;rotatable=0;labelPosition=right;points=[];portConstraint=eastwest;" vertex="1" parent="MNzqw_xFGZkOq_bHs1Yj-1">
          <mxGeometry y="26" width="160" height="8" as="geometry" />
        </mxCell>
        <mxCell id="MNzqw_xFGZkOq_bHs1Yj-3" value="+main(args:String[]): void" style="text;align=left;verticalAlign=top;spacingLeft=4;spacingRight=4;overflow=hidden;rotatable=0;points=[[0,0.5],[1,0.5]];portConstraint=eastwest;" vertex="1" parent="MNzqw_xFGZkOq_bHs1Yj-1">
          <mxGeometry y="34" width="160" height="26" as="geometry" />
        </mxCell>
        <mxCell id="MNzqw_xFGZkOq_bHs1Yj-4" value="Carro" style="swimlane;fontStyle=2;align=center;verticalAlign=top;childLayout=stackLayout;horizontal=1;startSize=26;horizontalStack=0;resizeParent=1;resizeLast=0;collapsible=1;marginBottom=0;rounded=0;shadow=0;strokeWidth=1;" vertex="1" parent="1">
          <mxGeometry x="150" y="270" width="360" height="130" as="geometry">
            <mxRectangle x="230" y="140" width="160" height="26" as="alternateBounds" />
          </mxGeometry>
        </mxCell>
        <mxCell id="MNzqw_xFGZkOq_bHs1Yj-5" value="" style="line;html=1;strokeWidth=1;align=left;verticalAlign=middle;spacingTop=-1;spacingLeft=3;spacingRight=3;rotatable=0;labelPosition=right;points=[];portConstraint=eastwest;" vertex="1" parent="MNzqw_xFGZkOq_bHs1Yj-4">
          <mxGeometry y="26" width="360" height="8" as="geometry" />
        </mxCell>
        <mxCell id="MNzqw_xFGZkOq_bHs1Yj-6" value="+ solicitarModelo(modelo : String): String&#xa;&#xa;+ solicitaCor(cor : String) : String&#xa;&#xa;+mostrarConsulta(modelo : String. cor : String) : void" style="text;align=left;verticalAlign=top;spacingLeft=4;spacingRight=4;overflow=hidden;rotatable=0;points=[[0,0.5],[1,0.5]];portConstraint=eastwest;" vertex="1" parent="MNzqw_xFGZkOq_bHs1Yj-4">
          <mxGeometry y="34" width="360" height="96" as="geometry" />
        </mxCell>
        <mxCell id="MNzqw_xFGZkOq_bHs1Yj-7" style="edgeStyle=orthogonalEdgeStyle;rounded=0;orthogonalLoop=1;jettySize=auto;html=1;entryX=0.472;entryY=0;entryDx=0;entryDy=0;entryPerimeter=0;dashed=1;dashPattern=8 8;" edge="1" parent="1" source="MNzqw_xFGZkOq_bHs1Yj-1" target="MNzqw_xFGZkOq_bHs1Yj-4">
          <mxGeometry relative="1" as="geometry" />
        </mxCell>
        <mxCell id="MNzqw_xFGZkOq_bHs1Yj-8" value="USE" style="edgeLabel;html=1;align=center;verticalAlign=middle;resizable=0;points=[];" connectable="0" vertex="1" parent="MNzqw_xFGZkOq_bHs1Yj-7">
          <mxGeometry x="-0.0372" y="1" relative="1" as="geometry">
            <mxPoint as="offset" />
          </mxGeometry>
        </mxCell>
      </root>
    </mxGraphModel>
  </diagram>
  <diagram id="zlmDzVpdYaEhzP1Wiig0" name="FabricaDeCarroV3">
    <mxGraphModel grid="1" page="1" gridSize="10" guides="1" tooltips="1" connect="1" arrows="1" fold="1" pageScale="1" pageWidth="827" pageHeight="1169" math="0" shadow="0">
      <root>
        <mxCell id="0" />
        <mxCell id="1" parent="0" />
        <mxCell id="S0RIb5YCVWp-dl60jxja-1" value="Principal" style="swimlane;fontStyle=2;align=center;verticalAlign=top;childLayout=stackLayout;horizontal=1;startSize=26;horizontalStack=0;resizeParent=1;resizeLast=0;collapsible=1;marginBottom=0;rounded=0;shadow=0;strokeWidth=1;" vertex="1" parent="1">
          <mxGeometry x="240" y="90" width="160" height="70" as="geometry">
            <mxRectangle x="230" y="140" width="160" height="26" as="alternateBounds" />
          </mxGeometry>
        </mxCell>
        <mxCell id="S0RIb5YCVWp-dl60jxja-2" value="" style="line;html=1;strokeWidth=1;align=left;verticalAlign=middle;spacingTop=-1;spacingLeft=3;spacingRight=3;rotatable=0;labelPosition=right;points=[];portConstraint=eastwest;" vertex="1" parent="S0RIb5YCVWp-dl60jxja-1">
          <mxGeometry y="26" width="160" height="8" as="geometry" />
        </mxCell>
        <mxCell id="S0RIb5YCVWp-dl60jxja-3" value="+main(args:String[]): void" style="text;align=left;verticalAlign=top;spacingLeft=4;spacingRight=4;overflow=hidden;rotatable=0;points=[[0,0.5],[1,0.5]];portConstraint=eastwest;" vertex="1" parent="S0RIb5YCVWp-dl60jxja-1">
          <mxGeometry y="34" width="160" height="26" as="geometry" />
        </mxCell>
        <mxCell id="S0RIb5YCVWp-dl60jxja-4" value="EntradaSaida" style="swimlane;fontStyle=2;align=center;verticalAlign=top;childLayout=stackLayout;horizontal=1;startSize=26;horizontalStack=0;resizeParent=1;resizeLast=0;collapsible=1;marginBottom=0;rounded=0;shadow=0;strokeWidth=1;" vertex="1" parent="1">
          <mxGeometry x="150" y="270" width="360" height="130" as="geometry">
            <mxRectangle x="230" y="140" width="160" height="26" as="alternateBounds" />
          </mxGeometry>
        </mxCell>
        <mxCell id="S0RIb5YCVWp-dl60jxja-5" value="" style="line;html=1;strokeWidth=1;align=left;verticalAlign=middle;spacingTop=-1;spacingLeft=3;spacingRight=3;rotatable=0;labelPosition=right;points=[];portConstraint=eastwest;" vertex="1" parent="S0RIb5YCVWp-dl60jxja-4">
          <mxGeometry y="26" width="360" height="8" as="geometry" />
        </mxCell>
        <mxCell id="S0RIb5YCVWp-dl60jxja-6" value="+ solicitarModelo(modelo : String): String&#xa;&#xa;+ solicitaCor(cor : String) : String&#xa;&#xa;+mostrarConsulta(modelo : String. cor : String) : void" style="text;align=left;verticalAlign=top;spacingLeft=4;spacingRight=4;overflow=hidden;rotatable=0;points=[[0,0.5],[1,0.5]];portConstraint=eastwest;" vertex="1" parent="S0RIb5YCVWp-dl60jxja-4">
          <mxGeometry y="34" width="360" height="96" as="geometry" />
        </mxCell>
        <mxCell id="S0RIb5YCVWp-dl60jxja-7" style="edgeStyle=orthogonalEdgeStyle;rounded=0;orthogonalLoop=1;jettySize=auto;html=1;entryX=0.472;entryY=0;entryDx=0;entryDy=0;entryPerimeter=0;dashed=1;dashPattern=8 8;" edge="1" parent="1" source="S0RIb5YCVWp-dl60jxja-1" target="S0RIb5YCVWp-dl60jxja-4">
          <mxGeometry relative="1" as="geometry" />
        </mxCell>
        <mxCell id="S0RIb5YCVWp-dl60jxja-8" value="USE" style="edgeLabel;html=1;align=center;verticalAlign=middle;resizable=0;points=[];" connectable="0" vertex="1" parent="S0RIb5YCVWp-dl60jxja-7">
          <mxGeometry x="-0.0372" y="1" relative="1" as="geometry">
            <mxPoint as="offset" />
          </mxGeometry>
        </mxCell>
        <mxCell id="S0RIb5YCVWp-dl60jxja-9" style="edgeStyle=orthogonalEdgeStyle;rounded=0;orthogonalLoop=1;jettySize=auto;html=1;entryX=0.5;entryY=0;entryDx=0;entryDy=0;" edge="1" parent="1" source="S0RIb5YCVWp-dl60jxja-3" target="S0RIb5YCVWp-dl60jxja-10">
          <mxGeometry relative="1" as="geometry">
            <mxPoint x="680" y="270" as="targetPoint" />
          </mxGeometry>
        </mxCell>
        <mxCell id="S0RIb5YCVWp-dl60jxja-10" value="Carro" style="swimlane;fontStyle=2;align=center;verticalAlign=top;childLayout=stackLayout;horizontal=1;startSize=26;horizontalStack=0;resizeParent=1;resizeLast=0;collapsible=1;marginBottom=0;rounded=0;shadow=0;strokeWidth=1;" vertex="1" parent="1">
          <mxGeometry x="600" y="280" width="210" height="160" as="geometry">
            <mxRectangle x="600" y="280" width="160" height="26" as="alternateBounds" />
          </mxGeometry>
        </mxCell>
        <mxCell id="S0RIb5YCVWp-dl60jxja-11" value="&lt;font style=&quot;font-size: 11px;&quot;&gt;- modelo : String&lt;br&gt;- cor : String&lt;br&gt;&lt;/font&gt;" style="text;html=1;align=left;verticalAlign=middle;resizable=0;points=[];autosize=1;strokeColor=none;fillColor=none;" vertex="1" parent="S0RIb5YCVWp-dl60jxja-10">
          <mxGeometry y="26" width="210" height="40" as="geometry" />
        </mxCell>
        <mxCell id="S0RIb5YCVWp-dl60jxja-12" value="" style="line;strokeWidth=1;fillColor=none;align=left;verticalAlign=middle;spacingTop=-1;spacingLeft=3;spacingRight=3;rotatable=0;labelPosition=right;points=[];portConstraint=eastwest;strokeColor=inherit;" vertex="1" parent="S0RIb5YCVWp-dl60jxja-10">
          <mxGeometry y="66" width="210" height="8" as="geometry" />
        </mxCell>
        <mxCell id="S0RIb5YCVWp-dl60jxja-13" value="+ getModelo (): String&lt;br&gt;+ setModelo(modelo : String) : void&lt;br&gt;+ getCor () : String&lt;br&gt;+setCor(cor : String) : void" style="text;html=1;align=left;verticalAlign=middle;resizable=0;points=[];autosize=1;strokeColor=none;fillColor=none;" vertex="1" parent="S0RIb5YCVWp-dl60jxja-10">
          <mxGeometry y="74" width="210" height="70" as="geometry" />
        </mxCell>
      </root>
    </mxGraphModel>
  </diagram>
  <diagram id="ovhMzaXuyvZX4kvXIz0m" name="FabricaDeCarroV4">
    <mxGraphModel grid="1" page="1" gridSize="10" guides="1" tooltips="1" connect="1" arrows="1" fold="1" pageScale="1" pageWidth="827" pageHeight="1169" math="0" shadow="0">
      <root>
        <mxCell id="0" />
        <mxCell id="1" parent="0" />
        <mxCell id="d2mykioqpJfv09RL3W3S-1" value="Principal" style="swimlane;fontStyle=2;align=center;verticalAlign=top;childLayout=stackLayout;horizontal=1;startSize=26;horizontalStack=0;resizeParent=1;resizeLast=0;collapsible=1;marginBottom=0;rounded=0;shadow=0;strokeWidth=1;" vertex="1" parent="1">
          <mxGeometry x="240" y="90" width="160" height="70" as="geometry">
            <mxRectangle x="230" y="140" width="160" height="26" as="alternateBounds" />
          </mxGeometry>
        </mxCell>
        <mxCell id="d2mykioqpJfv09RL3W3S-2" value="" style="line;html=1;strokeWidth=1;align=left;verticalAlign=middle;spacingTop=-1;spacingLeft=3;spacingRight=3;rotatable=0;labelPosition=right;points=[];portConstraint=eastwest;" vertex="1" parent="d2mykioqpJfv09RL3W3S-1">
          <mxGeometry y="26" width="160" height="8" as="geometry" />
        </mxCell>
        <mxCell id="d2mykioqpJfv09RL3W3S-3" value="+main(args:String[]): void" style="text;align=left;verticalAlign=top;spacingLeft=4;spacingRight=4;overflow=hidden;rotatable=0;points=[[0,0.5],[1,0.5]];portConstraint=eastwest;" vertex="1" parent="d2mykioqpJfv09RL3W3S-1">
          <mxGeometry y="34" width="160" height="26" as="geometry" />
        </mxCell>
        <mxCell id="d2mykioqpJfv09RL3W3S-4" value="EntradaSaida" style="swimlane;fontStyle=2;align=center;verticalAlign=top;childLayout=stackLayout;horizontal=1;startSize=26;horizontalStack=0;resizeParent=1;resizeLast=0;collapsible=1;marginBottom=0;rounded=0;shadow=0;strokeWidth=1;" vertex="1" parent="1">
          <mxGeometry x="150" y="270" width="360" height="130" as="geometry">
            <mxRectangle x="230" y="140" width="160" height="26" as="alternateBounds" />
          </mxGeometry>
        </mxCell>
        <mxCell id="d2mykioqpJfv09RL3W3S-5" value="" style="line;html=1;strokeWidth=1;align=left;verticalAlign=middle;spacingTop=-1;spacingLeft=3;spacingRight=3;rotatable=0;labelPosition=right;points=[];portConstraint=eastwest;" vertex="1" parent="d2mykioqpJfv09RL3W3S-4">
          <mxGeometry y="26" width="360" height="8" as="geometry" />
        </mxCell>
        <mxCell id="d2mykioqpJfv09RL3W3S-6" value="+ solicitarModelo(modelo : String): String&#xa;&#xa;+ solicitaCor(cor : String) : String&#xa;&#xa;+ mostrarCarro(modelo : String. cor : String) : void" style="text;align=left;verticalAlign=top;spacingLeft=4;spacingRight=4;overflow=hidden;rotatable=0;points=[[0,0.5],[1,0.5]];portConstraint=eastwest;" vertex="1" parent="d2mykioqpJfv09RL3W3S-4">
          <mxGeometry y="34" width="360" height="96" as="geometry" />
        </mxCell>
        <mxCell id="d2mykioqpJfv09RL3W3S-7" style="edgeStyle=orthogonalEdgeStyle;rounded=0;orthogonalLoop=1;jettySize=auto;html=1;entryX=0.472;entryY=0;entryDx=0;entryDy=0;entryPerimeter=0;dashed=1;dashPattern=8 8;" edge="1" parent="1" source="d2mykioqpJfv09RL3W3S-1" target="d2mykioqpJfv09RL3W3S-4">
          <mxGeometry relative="1" as="geometry" />
        </mxCell>
        <mxCell id="d2mykioqpJfv09RL3W3S-8" value="USE" style="edgeLabel;html=1;align=center;verticalAlign=middle;resizable=0;points=[];" connectable="0" vertex="1" parent="d2mykioqpJfv09RL3W3S-7">
          <mxGeometry x="-0.0372" y="1" relative="1" as="geometry">
            <mxPoint as="offset" />
          </mxGeometry>
        </mxCell>
        <mxCell id="d2mykioqpJfv09RL3W3S-9" value="Carro" style="swimlane;fontStyle=2;align=center;verticalAlign=top;childLayout=stackLayout;horizontal=1;startSize=26;horizontalStack=0;resizeParent=1;resizeLast=0;collapsible=1;marginBottom=0;rounded=0;shadow=0;strokeWidth=1;" vertex="1" parent="1">
          <mxGeometry x="520" y="80" width="210" height="180" as="geometry">
            <mxRectangle x="600" y="280" width="160" height="26" as="alternateBounds" />
          </mxGeometry>
        </mxCell>
        <mxCell id="d2mykioqpJfv09RL3W3S-10" value="&lt;font style=&quot;font-size: 11px;&quot;&gt;- modelo : String&lt;br&gt;- cor : String&lt;br&gt;&lt;/font&gt;" style="text;html=1;align=left;verticalAlign=middle;resizable=0;points=[];autosize=1;strokeColor=none;fillColor=none;" vertex="1" parent="d2mykioqpJfv09RL3W3S-9">
          <mxGeometry y="26" width="210" height="40" as="geometry" />
        </mxCell>
        <mxCell id="d2mykioqpJfv09RL3W3S-11" value="" style="line;strokeWidth=1;fillColor=none;align=left;verticalAlign=middle;spacingTop=-1;spacingLeft=3;spacingRight=3;rotatable=0;labelPosition=right;points=[];portConstraint=eastwest;strokeColor=inherit;" vertex="1" parent="d2mykioqpJfv09RL3W3S-9">
          <mxGeometry y="66" width="210" height="8" as="geometry" />
        </mxCell>
        <mxCell id="d2mykioqpJfv09RL3W3S-12" value="+ getModelo (): String&lt;br style=&quot;border-color: var(--border-color);&quot;&gt;&lt;span style=&quot;&quot;&gt;+ setModelo(modelo : String) : void&lt;/span&gt;&lt;br style=&quot;border-color: var(--border-color);&quot;&gt;&lt;span style=&quot;&quot;&gt;+ getCor () : String&lt;/span&gt;&lt;br style=&quot;border-color: var(--border-color);&quot;&gt;&lt;span style=&quot;&quot;&gt;+setCor(cor : String) : void&lt;/span&gt;" style="text;html=1;align=left;verticalAlign=middle;resizable=0;points=[];autosize=1;strokeColor=none;fillColor=none;" vertex="1" parent="d2mykioqpJfv09RL3W3S-9">
          <mxGeometry y="74" width="210" height="70" as="geometry" />
        </mxCell>
        <mxCell id="d2mykioqpJfv09RL3W3S-13" value="&lt;&lt;interface&gt;&gt;&#xa;Contrato" style="swimlane;fontStyle=2;align=center;verticalAlign=top;childLayout=stackLayout;horizontal=1;startSize=40;horizontalStack=0;resizeParent=1;resizeLast=0;collapsible=1;marginBottom=0;rounded=0;shadow=0;strokeWidth=1;" vertex="1" parent="1">
          <mxGeometry x="215" y="-110" width="210" height="110" as="geometry">
            <mxRectangle x="600" y="280" width="160" height="26" as="alternateBounds" />
          </mxGeometry>
        </mxCell>
        <mxCell id="d2mykioqpJfv09RL3W3S-14" value="+ setModelo(modelo : String) : void&lt;br&gt;+ setCor(cor : String) : void" style="text;html=1;align=left;verticalAlign=middle;resizable=0;points=[];autosize=1;strokeColor=none;fillColor=none;" vertex="1" parent="d2mykioqpJfv09RL3W3S-13">
          <mxGeometry y="40" width="210" height="40" as="geometry" />
        </mxCell>
        <mxCell id="d2mykioqpJfv09RL3W3S-15" value="&lt;font style=&quot;font-size: 11px;&quot;&gt;&lt;br&gt;&lt;/font&gt;" style="text;html=1;align=left;verticalAlign=middle;resizable=0;points=[];autosize=1;strokeColor=none;fillColor=none;" vertex="1" parent="d2mykioqpJfv09RL3W3S-13">
          <mxGeometry y="80" width="210" height="30" as="geometry" />
        </mxCell>
        <mxCell id="d2mykioqpJfv09RL3W3S-17" style="edgeStyle=orthogonalEdgeStyle;rounded=0;orthogonalLoop=1;jettySize=auto;html=1;entryX=-0.006;entryY=0.758;entryDx=0;entryDy=0;entryPerimeter=0;dashed=1;" edge="1" parent="1" source="d2mykioqpJfv09RL3W3S-3" target="d2mykioqpJfv09RL3W3S-10">
          <mxGeometry relative="1" as="geometry" />
        </mxCell>
        <mxCell id="d2mykioqpJfv09RL3W3S-18" value="USE&lt;br&gt;" style="edgeLabel;html=1;align=center;verticalAlign=middle;resizable=0;points=[];" connectable="0" vertex="1" parent="d2mykioqpJfv09RL3W3S-17">
          <mxGeometry x="-0.0756" y="2" relative="1" as="geometry">
            <mxPoint as="offset" />
          </mxGeometry>
        </mxCell>
        <mxCell id="PXBNLMwoFJaJsWwTDS0_-1" value="" style="endArrow=open;html=1;rounded=0;fontSize=12;exitX=0.5;exitY=0;exitDx=0;exitDy=0;entryX=1.01;entryY=0.475;entryDx=0;entryDy=0;entryPerimeter=0;endFill=0;" edge="1" parent="1" source="d2mykioqpJfv09RL3W3S-9" target="d2mykioqpJfv09RL3W3S-14">
          <mxGeometry width="50" height="50" relative="1" as="geometry">
            <mxPoint x="390" y="80" as="sourcePoint" />
            <mxPoint x="440" y="30" as="targetPoint" />
            <Array as="points">
              <mxPoint x="625" y="-51" />
            </Array>
          </mxGeometry>
        </mxCell>
      </root>
    </mxGraphModel>
  </diagram>
  <diagram id="djagrhiWmQaieUW0u-gG" name="Página-5">
    <mxGraphModel grid="0" page="0" gridSize="10" guides="1" tooltips="1" connect="1" arrows="1" fold="1" pageScale="1" pageWidth="827" pageHeight="1169" math="0" shadow="0">
      <root>
        <mxCell id="0" />
        <mxCell id="1" parent="0" />
      </root>
    </mxGraphModel>
  </diagram>
</mxfile>
